<svg xmlns="http://www.w3.org/2000/svg" viewBox="0 0 48 48" id="smartphone"><path d="M33,2H15a4,4,0,0,0-4,4V42a4,4,0,0,0,4,4H33a4,4,0,0,0,4-4V6A4,4,0,0,0,33,2ZM15,4H33a2,2,0,0,1,2,2V8H13V6A2,2,0,0,1,15,4Zm20,6V36H13V10ZM33,44H15a2,2,0,0,1-2-2V38H35v4A2,2,0,0,1,33,44ZM27,7H21V5h6ZM21,40h6v2H21Zm6.84-15.21L26.3,26.07a3,3,0,0,0-4.6,0l-1.54-1.28a5,5,0,0,1,7.68,0ZM17.36,21.93a9,9,0,0,1,13.28,0l-1.48,1.34a7,7,0,0,0-10.32,0ZM23,27h2v2H23Z" data-name="08  handphone,smartphone, Internet, Music, Wireless"></path></svg>